<?xml version="1.0" encoding="UTF-8" standalone="no"?>
<svg
   id="图层_1"
   data-name="图层 1"
   viewBox="0 0 32 32"
   version="1.1"
   sodipodi:docname="favicon-16x16.svg"
   inkscape:version="1.2.2 (b0a8486541, 2022-12-01)"
   width="32"
   height="32"
   xmlns:inkscape="http://www.inkscape.org/namespaces/inkscape"
   xmlns:sodipodi="http://sodipodi.sourceforge.net/DTD/sodipodi-0.dtd"
   xmlns="http://www.w3.org/2000/svg"
   xmlns:svg="http://www.w3.org/2000/svg">
  <sodipodi:namedview
     id="namedview31"
     pagecolor="#505050"
     bordercolor="#eeeeee"
     borderopacity="1"
     inkscape:showpageshadow="0"
     inkscape:pageopacity="0"
     inkscape:pagecheckerboard="0"
     inkscape:deskcolor="#505050"
     showgrid="false"
     inkscape:zoom="16.046875"
     inkscape:cx="31.968841"
     inkscape:cy="32.031159"
     inkscape:window-width="3840"
     inkscape:window-height="2088"
     inkscape:window-x="0"
     inkscape:window-y="0"
     inkscape:window-maximized="1"
     inkscape:current-layer="图层_1" />
  <defs
     id="defs4">
    <style
       id="style2">.cls-1{fill:#1b2c77;}.cls-2{fill:#172788;}</style>
  </defs>
  <path
     class="cls-1"
     d="m 9.1397396,9.2080186 h -3.05 l -3,-3.2432434 v 9.8378388 l 3,-3.297298 H 10.63974 l 0.75,0.810811 0.75,0.810811 v 0 l -0.75,0.810811 -0.75,0.864865 H 4.5897396 l -1.5,1.621622 v 0 l -0.8,0.81081 -0.75,0.81081 v 0 l -0.75000007,0.810811 -0.75,0.810811 H 4.5897396 l 0.75,-0.810811 0.75,-0.810811 H 12.13974 l 0.8,-0.81081 0.75,-0.81081 0.75,-0.810811 0.75,-0.810811 v -3.297298 l -1.5,-1.621621 0.75,-0.864865 0.75,-0.8108114 v 0 l 0.75,-0.8108108 0.75,-0.8108109 -0.75,-0.8108109 -0.75,-0.8108108 v 0 l -1.5,-1.6756753 -0.75,-0.8108107 -0.8,-0.8108109 H 1.5397396 l 3.05,3.2972969 H 10.63974 l 1.5,1.6216217 -0.75,0.8108109 -0.75,0.8108108 z"
     id="path6"
     style="stroke-width:0.519875" />
  <path
     class="cls-1"
     d="m 25.98974,2.6674783 h -12.15 l 0.8,0.8108109 0.75,0.8108107 v 0 l 0.75,0.8648653 0.75,0.81081 h 7.55 l 0.8,0.8108108 0.75,0.8108109 v 4.9189191 l 0.75,0.810811 0.75,0.810811 v 0 l 1.5,1.675676 V 5.9647752 Z"
     id="path8"
     style="stroke-width:0.519875" />
  <path
     class="cls-1"
     d="m 22.93974,14.126938 h -1.5 l 0.75,0.810811 0.75,0.864865 h -3 v -4.918919 l -1.55,-1.6756764 h -1.5 v 8.2162174 l 0.75,0.81081 0.75,0.81081 h 7.6 l 0.75,0.810811 0.75,0.810811 h 4.55 l -0.75,-0.810811 -0.75,-0.810811 v 0 l -0.75,-0.81081 -0.8,-0.81081 v 0 l -2.25,-2.486487 -0.75,-0.810811 z"
     id="path10"
     style="stroke-width:0.519875" />
  <path
     class="cls-2"
     d="m 5.8897396,26.343154 -0.15,-0.162162 v 0 l -0.3,-0.378379 -0.15,-0.162162 -0.15,-0.162162 h -2.15 l 0.6,0.702703 h 1.25 l 0.3,0.324324 -0.15,0.162162 -0.15,0.162162 h -0.95 l -0.6,-0.648648 v 2 l 0.6,-0.702703 h 0.95 l 0.15,0.162162 0.15,0.162162 v 0 l -0.15,0.216217 -0.15,0.162162 h -1.25 l -0.3,0.324324 v 0 l -0.15,0.162162 -0.15,0.162163 v 0 l -0.2,0.162162 -0.15,0.162162 h 0.95 l 0.15,-0.162162 0.15,-0.162162 h 1.25 l 0.15,-0.162163 0.15,-0.162162 0.15,-0.162162 0.15,-0.162162 v -0.702703 l -0.3,-0.324324 0.15,-0.162162 0.15,-0.162163 v 0 l 0.15,-0.162162 0.15,-0.162162 z m -2.3,-0.540541 z m 0.9,0 z m -0.9,1.027027 z m 0,2.000001 z m 1.85,-1.027028 z m 0,-0.972973 z"
     id="path12"
     style="stroke-width:0.519875" />
  <path
     class="cls-2"
     d="m 20.68974,25.478289 h -2.5 l 0.15,0.162162 0.15,0.162162 v 0 l 0.15,0.216216 0.2,0.162163 h 1.5 l 0.15,0.162162 0.2,0.162162 v 0.972973 l 0.15,0.162162 0.15,0.162162 v 0 l 0.3,0.378379 v -2 z m -1.55,0.324324 z m 0.9,0 z m 0.95,1.027027 z"
     id="path14"
     style="stroke-width:0.519875" />
  <path
     class="cls-2"
     d="m 21.73974,28.991803 -0.15,-0.162162 v 0 l -0.15,-0.162163 -0.15,-0.162162 v 0 l -0.45,-0.486486 -0.15,-0.216217 h -0.95 l 0.15,0.216217 0.15,0.162162 h -0.6 v -1.027027 l -0.3,-0.324325 h -0.3 v 1.675676 l 0.15,0.162162 0.15,0.162163 h 1.55 l 0.15,0.162162 0.15,0.162162 h 0.9 z m -2.6,-1.18919 z m 1.85,1.027028 z m 0.3,0 z"
     id="path16"
     style="stroke-width:0.519875" />
  <polygon
     class="cls-2"
     points="25.1,57.9 23.8,56.7 23.8,54.2 23.2,53.6 23.9,53 25.1,53 "
     id="polygon18"
     transform="matrix(0.5,0,0,0.54054054,0.03973953,-2.1433325)" />
  <path
     class="cls-2"
     d="m 11.98974,25.478289 0.3,0.324324 v 0.378379 h -0.6 l -0.65,-0.702703 z"
     id="path20"
     style="stroke-width:0.519875" />
  <polygon
     class="cls-2"
     points="51.8,51.1 53,52.4 53,56.7 53.7,57.3 56.7,57.3 55.5,56.1 54.3,56.1 54.3,51.7 53.7,51.1 53,51.1 "
     id="polygon22"
     transform="matrix(0.5,0,0,0.54054054,0.03973953,-2.1433325)" />
  <polygon
     class="cls-2"
     points="56.8,51.7 56.7,55.4 55.5,55.5 58,57.9 59.8,57.9 58,56.1 58,52.3 59.2,51.1 57.4,51.1 "
     id="polygon24"
     transform="matrix(0.5,0,0,0.54054054,0.03973953,-2.1433325)" />
  <path
     class="cls-1"
     d="m 29.53974,1.4242351 h -0.4 v 1.2432432 h -0.3 V 1.4242351 h -0.4 V 1.1539648 h 1.1 z"
     id="path26"
     style="stroke-width:0.519875" />
  <path
     class="cls-1"
     d="m 31.03974,2.6674783 v -1.2432432 0 c 0,0.1081081 -0.05,0.1621622 -0.05,0.2162162 l -0.35,1.027027 h -0.25 l -0.35,-1.027027 V 1.4242351 h -0.05 a 0.85,0.91891896 0 0 1 0.05,0.3783783 v 0.8648649 h -0.3 V 1.1539648 h 0.45 l 0.3,0.918919 a 0.3,0.32432432 0 0 1 0.05,0.2162161 v 0 a 0.4,0.43243243 0 0 0 0.05,-0.2162161 l 0.3,-0.918919 h 0.45 v 1.5135135 z"
     id="path28"
     style="stroke-width:0.519875" />
</svg>
